<svg width="40" height="40" viewBox="0 0 40 40" fill="none" xmlns="http://www.w3.org/2000/svg">
<path fill-rule="evenodd" clip-rule="evenodd" d="M19.6264 1.02872L37.304 18.7064C37.5583 18.9606 37.5583 19.3728 37.304 19.6271L19.6264 37.3048C19.3721 37.559 18.9599 37.559 18.7057 37.3048L1.02799 19.6271C0.773742 19.3728 0.773744 18.9606 1.02799 18.7064L18.7057 1.02872C18.9599 0.774468 19.3721 0.774468 19.6264 1.02872ZM19.166 35.9219L35.923 19.1649L19.166 2.40794L2.40906 19.1649L19.166 35.9219Z" fill="#202020"/>
<path d="M13.9335 21.0032L9.27856 25.6584C9.02433 25.9126 9.02433 26.3249 9.27858 26.5791L18.7067 36.0072C18.9609 36.2614 19.3731 36.2614 19.6274 36.0072L29.0555 26.5791C29.3098 26.3248 29.3097 25.9125 29.0554 25.6583L24.3997 21.0044L24.3096 20.9291C24.0558 20.7534 23.7051 20.7785 23.4791 21.0045L19.1657 25.3159L14.8543 21.0032C14.6 20.7489 14.1878 20.7489 13.9335 21.0032Z" fill="#202020"/>
<path fill-rule="evenodd" clip-rule="evenodd" d="M19.6264 11.6361L26.6974 18.7072C26.9517 18.9615 26.9517 19.3737 26.6974 19.6279L19.6264 26.699C19.3721 26.9532 18.9599 26.9532 18.7057 26.699L11.6346 19.6279C11.3803 19.3737 11.3803 18.9615 11.6346 18.7072L18.7057 11.6361C18.9599 11.3819 19.3721 11.3819 19.6264 11.6361ZM19.166 25.3161L25.3164 19.1657L19.166 13.0154L13.0157 19.1657L19.166 25.3161Z" fill="#202020"/>
</svg>
