<svg width="68" height="68" viewBox="0 0 68 68" fill="none" xmlns="http://www.w3.org/2000/svg">
<path fill-rule="evenodd" clip-rule="evenodd" d="M63.5404 20.3203C63.5399 19.2036 63.3013 18.217 62.8189 17.3703C62.3451 16.5375 61.6351 15.8397 60.6833 15.2877C52.825 10.7523 44.9591 6.23066 37.1036 1.69059C34.9857 0.46692 32.9322 0.511421 30.83 1.75285C27.7022 3.59931 12.0424 12.5798 7.37594 15.2852C5.45431 16.3989 4.51908 18.1031 4.51862 20.3182C4.51562 29.4394 4.51862 38.5601 4.51562 47.6815C4.51609 48.7735 4.74459 49.7411 5.20574 50.5753C5.67981 51.433 6.39944 52.1501 7.3734 52.7146C12.0401 55.4199 27.702 64.3998 30.8291 66.2467C32.9322 67.4888 34.9857 67.5331 37.1043 66.3089C44.96 61.7687 52.8264 57.2473 60.6859 52.7118C61.6598 52.1476 62.3794 51.43 62.8535 50.573C63.314 49.7387 63.5429 48.7712 63.5434 47.679C63.5434 47.679 63.5434 29.4417 63.5404 20.3203Z" fill="#A9B9CB"/>
<path fill-rule="evenodd" clip-rule="evenodd" d="M37.0503 1.75087C34.9359 0.530197 32.8858 0.574699 30.7871 1.8129C27.6644 3.65452 12.0301 12.6118 7.37132 15.3102C5.45269 16.4209 4.51908 18.1207 4.51862 20.3301C4.51562 29.4275 4.51862 38.5247 4.51562 47.6224C4.51609 48.7116 4.74413 49.6766 5.20459 50.5085C5.67796 51.3642 6.39644 52.0794 7.36879 52.6423C8.43613 53.2604 10.0801 54.2074 12.017 55.3216L55.1562 12.1824C49.1201 8.7067 43.0824 5.23374 37.0503 1.75087Z" fill="#7F8B99"/>
<path fill-rule="evenodd" clip-rule="evenodd" d="M40.1297 29.8426L49.3157 29.9073C49.3157 26.08 45.4415 16.707 34.3344 16.707C27.2578 16.707 17.7441 21.2061 17.7441 34.141C17.7441 47.0757 27.0703 51.2936 34.3344 51.2936C46.0978 51.2936 48.9092 43.1538 48.9092 38.5538L40.1456 38.0527C40.1456 38.0527 40.3801 43.3733 34.2876 43.3733C28.6638 43.3733 27.7254 36.4841 27.7254 34.141C27.7254 30.5793 28.9919 24.8616 34.2876 24.8616C39.5835 24.8616 40.1297 29.8426 40.1297 29.8426Z" fill="white"/>
</svg>
