<svg width="52" height="70" viewBox="0 0 52 70" fill="none" xmlns="http://www.w3.org/2000/svg">
<path d="M16.9235 54.1348C16.9235 54.1348 14.2485 55.6904 18.8272 56.2168C24.3742 56.8496 27.2092 56.7588 33.322 55.6019C33.322 55.6019 34.9291 56.6096 37.1736 57.4824C23.4703 63.3554 6.16032 57.1422 16.9235 54.1348Z" fill="#5382A1"/>
<path d="M15.2489 46.4707C15.2489 46.4707 12.2487 48.6916 16.8308 49.1655C22.7562 49.7768 27.4357 49.8268 35.5329 48.2676C35.5329 48.2676 36.6529 49.4031 38.4139 50.024C21.8459 54.8687 3.39199 50.406 15.2489 46.4707Z" fill="#5382A1"/>
<path d="M29.3655 33.4701C32.742 37.3576 28.4784 40.8557 28.4784 40.8557C28.4784 40.8557 37.0518 36.4299 33.1144 30.8876C29.437 25.7191 26.6169 23.1511 41.8837 14.2969C41.8837 14.2969 17.9199 20.2819 29.3655 33.4701Z" fill="#E76F00"/>
<path d="M47.4893 59.803C47.4893 59.803 49.4688 61.4341 45.3092 62.6959C37.3995 65.092 12.3881 65.8156 5.44004 62.7914C2.94239 61.7048 7.62619 60.1969 9.09953 59.8805C10.6361 59.5473 11.5142 59.6094 11.5142 59.6094C8.73653 57.6527 -6.43934 63.4515 3.80557 65.1122C31.7449 69.6432 54.7364 63.0719 47.4893 59.803Z" fill="#5382A1"/>
<path d="M18.2106 38.5309C18.2106 38.5309 5.48824 41.5527 13.7053 42.65C17.1748 43.1145 24.0912 43.0094 30.5336 42.4697C35.7987 42.0255 41.0855 41.0812 41.0855 41.0812C41.0855 41.0812 39.2289 41.8763 37.8858 42.7934C24.9664 46.1912 0.00862547 44.6105 7.19365 41.135C13.27 38.1977 18.2106 38.5309 18.2106 38.5309Z" fill="#5382A1"/>
<path d="M41.0325 51.2867C54.1656 44.4622 48.0934 37.904 43.855 38.7875C42.8162 39.0037 42.353 39.1911 42.353 39.1911C42.353 39.1911 42.7387 38.587 43.4753 38.3255C51.86 35.3776 58.3085 47.0197 40.7686 51.6306C40.7686 51.6308 40.9718 51.4491 41.0325 51.2867Z" fill="#5382A1"/>
<path d="M33.1147 0C33.1147 0 40.3881 7.27578 26.2163 18.4639C14.852 27.4386 23.6249 32.5558 26.2116 38.4024C19.5781 32.4173 14.7099 27.1486 17.9759 22.245C22.7695 15.047 36.0494 11.5571 33.1147 0Z" fill="#E76F00"/>
<path d="M19.5009 69.7798C32.1071 70.5867 51.4653 69.3321 51.9237 63.3672C51.9237 63.3672 51.0424 65.6284 41.5054 67.4242C30.7458 69.449 17.4753 69.2126 9.60449 67.9149C9.60468 67.9148 11.2158 69.2485 19.5009 69.7798Z" fill="#5382A1"/>
</svg>
