<svg width="52" height="70" viewBox="0 0 52 70" fill="none" xmlns="http://www.w3.org/2000/svg">
<g id="Group">
<path id="Vector" d="M0.958431 37.8944C1.05884 39.9629 3.12727 38.9989 4.05103 38.3563C4.93463 37.7338 5.19569 38.2559 5.27602 37.051C5.33627 36.2477 5.41659 35.4645 5.37643 34.6613C4.03095 34.5408 2.58506 34.8621 1.48056 35.6654C0.898185 36.067 -0.146069 37.3924 0.958431 37.8944Z" fill="#F6D2A2"/>
<path id="Vector_2" d="M42.1861 63.3184C43.7725 64.3024 46.6844 67.2745 44.2947 68.7204C42.0053 70.8089 40.7201 66.411 38.7119 65.8085C39.5754 64.6237 40.6598 63.5393 42.1861 63.3184Z" fill="#F6D2A2"/>
<path id="Vector_3" d="M13.7915 66.6725C11.9239 66.9536 10.8796 68.6405 9.31326 69.504C7.84728 70.3675 7.28499 69.2229 7.1645 68.9819C6.9436 68.8815 6.96368 69.0823 6.60221 68.7208C5.23665 66.5721 8.00794 65.0057 9.45383 63.9414C11.462 63.5397 12.7272 65.2868 13.7915 66.6725Z" fill="#F6D2A2"/>
<path id="Vector_4" d="M51.0021 37.6347C50.9016 39.7031 48.8332 38.7392 47.9095 38.0965C47.0259 37.474 46.7648 37.9961 46.6845 36.7912C46.6242 35.988 46.5439 35.2048 46.5841 34.4015C47.9295 34.281 49.3754 34.6023 50.4799 35.4056C51.0422 35.8072 52.1066 37.1326 51.0021 37.6347Z" fill="#F6D2A2"/>
<path id="Vector_5" d="M45.5201 12.4098C52.6893 9.8795 47.0865 0.0594981 40.8411 4.39717C36.7444 0.882853 31.1014 0.240234 25.1773 0.240234C19.3736 0.702116 13.8511 1.76645 9.99541 5.1402C3.77005 1.12383 -1.97335 10.7631 5.33643 13.193C3.28809 21.1454 5.61758 29.2585 5.29627 37.3514C4.99504 44.621 3.08727 54.3607 7.12371 60.8873C10.5577 66.47 17.9478 68.4581 24.0326 68.679C31.8043 68.9602 41.2226 67.0524 44.998 59.5217C48.6127 52.3525 47.6086 43.4161 47.1468 35.6846C46.6849 27.8728 47.5484 19.9405 45.5201 12.4098Z" fill="#69D7E2"/>
<path id="Vector_6" d="M51.5448 36.4083C51.3439 35.9866 50.9624 35.5046 50.6009 35.2436C49.6771 34.5809 48.4923 34.2194 47.2673 34.1792C47.2272 32.9342 47.187 31.5686 47.187 29.8416V28.2752C47.1669 23.3351 47.1067 21.1662 46.8255 18.4552C46.6046 16.3265 46.2632 14.3585 45.7813 12.511C47.4079 11.8884 48.4722 10.8643 48.894 9.53886C49.2956 8.31387 49.0948 6.92822 48.412 5.70323C47.7091 4.49833 46.5845 3.59464 45.2792 3.23317C43.8735 2.85162 42.3473 3.13276 40.8813 4.11677C39.576 3.01227 38.0699 2.16884 36.383 1.52622C33.3908 0.421718 29.9166 0 25.1974 0V0.200818L25.1773 0C20.1368 0.401636 16.4016 1.18483 13.309 2.69096C12.0639 3.29342 10.9594 4.01636 9.99549 4.8598C8.50943 3.93603 6.96313 3.71513 5.53732 4.15693C4.21193 4.55857 3.06726 5.50242 2.38448 6.72741C1.7017 7.9524 1.54104 9.35812 2.00293 10.563C2.46481 11.7679 3.52914 12.7118 5.11561 13.2942C4.61356 15.3224 4.3525 17.4712 4.31233 19.8408C4.27217 22.1502 4.37258 23.9978 4.73405 28.1748C4.99512 31.2875 5.09552 32.7133 5.13569 34.4403C3.77013 34.3801 2.40456 34.7415 1.38039 35.4846C1.01892 35.7456 0.617281 36.2075 0.436545 36.6493C0.175481 37.2116 0.27589 37.7136 0.798018 38.0149C0.878345 38.9788 1.42055 39.4206 2.24391 39.3403C2.84636 39.28 3.56931 38.9587 4.19184 38.5169C4.33242 38.4165 4.47299 38.3362 4.61356 38.2759C4.67381 38.2558 4.71397 38.2358 4.77422 38.2157C4.77422 38.2157 4.89471 38.1755 4.93487 38.1554C4.99512 38.1354 5.05536 38.1153 5.09552 38.0751C5.05536 39.019 4.97503 40.003 4.7943 42.2521C4.59348 44.7824 4.49307 46.1681 4.45291 47.7144C4.27217 53.4578 4.95495 57.6348 7.0033 60.9483C7.64592 61.9925 8.42911 62.9163 9.35287 63.7597C9.17213 63.8802 8.40902 64.4425 8.16804 64.6233C7.32461 65.2659 6.74223 65.8081 6.40084 66.4105C5.95904 67.1937 5.95904 67.9769 6.46109 68.8003L6.48117 68.8204L6.50125 68.8404C6.72215 69.0613 6.84264 69.1216 7.0033 69.1216H7.02338H7.06354C7.08362 69.1618 7.10371 69.1818 7.12379 69.222C7.18403 69.3224 7.24428 69.4027 7.30452 69.4831C7.80657 70.0654 8.50943 70.206 9.45328 69.6437C9.95532 69.3827 10.3168 69.0814 11.0799 68.4388C11.1 68.4187 11.1 68.4187 11.1201 68.3986C12.3451 67.3544 12.9475 66.9728 13.8512 66.8323L14.1725 66.772C14.293 66.8323 14.4135 66.8724 14.5541 66.9327C17.4057 68.0773 20.7192 68.6999 24.0728 68.8204C28.4105 68.981 32.5875 68.4388 36.1219 67.1536C37.0658 66.8122 37.9494 66.4105 38.7928 65.9687C39.3149 66.1696 39.7567 66.5913 40.6002 67.5753C40.6403 67.6155 40.6403 67.6155 40.6604 67.6556C40.7006 67.6958 40.7006 67.7159 40.7207 67.7359C40.7608 67.7962 40.8211 67.8364 40.8612 67.8966C41.5239 68.6798 41.9657 69.0613 42.4678 69.2822C43.1305 69.5634 43.7731 69.4228 44.4358 68.8204C45.6005 68.0974 45.6809 66.9728 44.9178 65.6876C44.3755 64.7839 43.4317 63.8401 42.5481 63.2376C43.5924 62.2134 44.496 60.9885 45.1989 59.6028C47.1268 55.7471 47.8698 51.2488 47.8296 45.4652C47.8095 43.4169 47.7292 41.6296 47.5083 38.2157V38.1153C47.6087 38.1554 47.7091 38.2157 47.8095 38.296C48.4321 38.7177 49.155 39.0591 49.7575 39.1194C50.5808 39.1997 51.123 38.7579 51.2034 37.794C51.7054 37.4727 51.8058 36.9706 51.5448 36.4083ZM45.1587 3.65489C46.3636 3.9762 47.4079 4.81963 48.0505 5.94422C48.6931 7.0688 48.8739 8.33395 48.5124 9.45853C48.1308 10.6434 47.1669 11.5872 45.6608 12.1495C45.3596 11.0651 44.9981 10.0007 44.5964 8.97657C45.1788 8.47452 45.46 7.85199 44.9981 6.96839C44.5362 6.08479 43.7329 5.98438 42.9096 6.24544C42.3874 5.56266 41.8051 4.96021 41.2026 4.39792C42.528 3.55448 43.8936 3.3135 45.1587 3.65489ZM2.34432 10.4425C1.9226 9.35812 2.06317 8.07289 2.70579 6.94831C3.34841 5.82373 4.39266 4.94013 5.63773 4.57865C6.92297 4.1971 8.30861 4.37783 9.67418 5.18111C8.89099 5.88397 8.18812 6.68724 7.58567 7.57084C6.54142 7.02863 5.47708 6.92822 4.87462 8.03272C4.25209 9.21755 4.97503 9.96058 5.99921 10.5229C5.85863 10.8643 5.71806 11.2257 5.59757 11.5872C5.457 12.029 5.31642 12.4909 5.19593 12.9528C3.72996 12.3905 2.76603 11.527 2.34432 10.4425ZM4.77422 37.8141C4.75413 37.8141 4.63364 37.8542 4.63364 37.8743C4.5734 37.8944 4.51315 37.9145 4.45291 37.9546C4.29225 38.0149 4.1316 38.1153 3.97094 38.2358C3.40865 38.6374 2.72587 38.9386 2.20374 38.9788C1.60129 39.039 1.2599 38.778 1.19965 38.055C1.62137 37.9145 1.80211 37.8141 1.96276 37.5731L1.64145 37.3321C1.52096 37.4927 1.40047 37.553 1.039 37.6735C1.01892 37.6735 1.01892 37.6735 0.998836 37.6936C0.677527 37.5128 0.617281 37.2317 0.798018 36.83C0.958672 36.4686 1.32014 36.0469 1.62137 35.826C2.5853 35.1231 3.87053 34.7817 5.15577 34.862C5.15577 35.3641 5.17585 35.8661 5.15577 36.3481C5.15577 36.4083 5.15577 36.4485 5.13569 36.5087C5.11561 36.7899 5.11561 36.9104 5.09552 37.0509C5.03528 37.6333 4.99512 37.7136 4.77422 37.8141ZM10.8389 68.1175C10.8188 68.1376 10.8188 68.1376 10.7988 68.1577C10.0557 68.8003 9.69426 69.0613 9.23238 69.3224C8.46927 69.7843 7.94714 69.6839 7.58567 69.2421C7.52542 69.1818 7.48526 69.1015 7.4451 69.0413C7.42501 69.0212 7.40493 68.981 7.38485 68.9609C7.38485 68.9609 7.38485 68.9609 7.38485 68.9409C7.42501 68.5794 7.56559 68.3183 7.92706 67.756C7.94714 67.7359 7.94714 67.7359 7.94714 67.7159C8.16804 67.3946 8.26845 67.2138 8.36886 66.9929L8.00739 66.8323C7.92706 67.013 7.82665 67.1737 7.62583 67.495C7.60575 67.515 7.60575 67.515 7.60575 67.5351C7.24428 68.0573 7.08362 68.3786 7.0033 68.74H6.98322C6.98322 68.74 6.98322 68.74 6.96313 68.74H6.92297C6.88281 68.72 6.82256 68.6798 6.74223 68.5995C5.95904 67.3544 6.58158 66.2901 8.34878 64.9647C8.56968 64.804 9.3127 64.2819 9.51352 64.1212C9.55369 64.1212 9.59385 64.1011 9.63401 64.0811C10.7184 65.0048 11.9836 65.8081 13.3893 66.4708C13.3893 66.4909 13.4094 66.511 13.4295 66.531C12.6061 66.7319 11.9635 67.1536 10.8389 68.1175ZM44.5563 65.9286C45.1788 66.9728 45.1587 67.8163 44.3755 68.3986C44.3153 68.2782 44.2751 68.1376 44.1948 67.9368C44.1948 67.9167 44.1948 67.9167 44.1747 67.8966C43.8936 67.1335 43.7128 66.8122 43.3715 66.4507L43.0903 66.7319C43.3915 67.013 43.5321 67.3142 43.8133 68.0171C43.8133 68.0372 43.8133 68.0372 43.8333 68.0573C43.9337 68.3183 43.994 68.479 44.0542 68.6195C43.5321 69.0613 43.0702 69.1417 42.5883 68.9208C42.1665 68.74 41.7649 68.3585 41.1223 67.6355C41.0821 67.5954 41.042 67.5351 41.0018 67.4749C40.9817 67.4548 40.9616 67.4347 40.9416 67.3946C40.9014 67.3544 40.9014 67.3544 40.8813 67.3142C40.1383 66.4507 39.6965 65.9888 39.2145 65.7278C40.3391 65.0851 41.3432 64.3622 42.2469 63.5188C43.0903 64.1413 44.0342 65.0651 44.5563 65.9286ZM44.8374 59.4221C43.1104 62.8962 40.058 65.3462 35.9613 66.8323C32.467 68.0974 28.3302 68.6195 24.0528 68.4589C16.6827 68.1978 10.2967 65.6274 7.30452 60.7676C5.29634 57.5344 4.63364 53.4176 4.81438 47.7545C4.87462 46.2082 4.95495 44.8226 5.15577 42.2923C5.37667 39.4407 5.43692 38.6173 5.49716 37.3321C5.53732 36.4083 5.53732 35.4645 5.51724 34.4604C5.47708 32.6932 5.37667 31.2875 5.11561 28.1346C4.75413 23.9576 4.65373 22.1302 4.69389 19.8408C4.75413 16.8286 5.15577 14.1778 5.99921 11.6675C7.36477 7.59092 9.875 4.83972 13.4897 3.05244C16.5221 1.56638 20.197 0.803272 25.1974 0.401636C29.8765 0.401636 33.2904 0.823354 36.2424 1.90777C39.7768 3.21309 42.4075 5.50242 44.2149 9.01673C45.3796 11.8683 46.0624 14.9409 46.4239 18.4753C46.705 21.1662 46.7653 23.3351 46.7854 28.2551V29.8215C46.8054 32.2514 46.8456 33.9583 46.946 35.6653C46.9862 36.328 47.0063 36.6091 47.1067 38.1956C47.3276 41.6095 47.4079 43.3767 47.428 45.4251C47.4681 51.1885 46.7452 55.6266 44.8374 59.4221ZM50.9825 37.4325C50.9624 37.4325 50.9423 37.4124 50.9222 37.4124C50.5607 37.2919 50.4403 37.2116 50.3198 37.071L49.9985 37.312C50.1792 37.553 50.3599 37.6534 50.7616 37.794C50.6812 38.5169 50.3398 38.778 49.7575 38.7177C49.2353 38.6776 48.5526 38.3563 47.9903 37.9747C47.8296 37.8542 47.669 37.7739 47.5083 37.6936C47.4882 37.6936 47.4681 37.6735 47.4481 37.6735C47.3677 36.569 47.3677 36.2878 47.3276 35.7055C47.3075 35.344 47.2874 34.9825 47.2673 34.621C48.3919 34.6411 49.4964 34.9825 50.3398 35.6051C50.6411 35.826 51.0025 36.2477 51.1632 36.6091C51.364 36.9505 51.3239 37.2518 50.9825 37.4325Z" fill="#202020"/>
<g id="Group_2">
<path id="Vector_7" d="M28.2221 20.9515C28.2422 21.9757 28.443 23.1002 28.2623 24.1847C27.9811 24.7068 27.459 24.767 26.9971 24.9679C26.3545 24.8674 25.8123 24.4457 25.5512 23.8433C25.3906 22.6183 25.5914 21.4535 25.6516 20.2285C25.6516 20.1884 26.4147 20.2486 27.0975 20.4494C27.6799 20.6302 28.2221 20.9314 28.2221 20.9515Z" fill="white"/>
<path id="Vector_8" d="M22.5389 21.033C21.9766 23.1617 23.2819 26.6359 25.4307 23.7843C25.27 22.5793 25.4508 21.4146 25.511 20.2298C25.5311 20.1294 22.559 20.8925 22.5389 21.033Z" fill="white"/>
<path id="Vector_9" d="M28.4628 21.8956C28.4226 21.2932 28.4025 21.0522 28.4025 20.751V20.6104L28.2619 20.5702L25.7316 19.7871V19.6465L25.4706 19.7067H25.4505V19.7268L22.5989 20.4498L22.4985 20.4698L22.4583 20.5702C22.0165 21.6346 22.1169 23.2411 22.6792 24.2251C23.3218 25.3497 24.3661 25.3698 25.4304 24.0846C25.7316 24.6669 26.2939 25.0686 26.9365 25.169H26.9968L27.057 25.1489C27.1374 25.1087 27.2177 25.0887 27.3583 25.0284C27.3783 25.0284 27.3783 25.0284 27.3984 25.0083C27.9808 24.8075 28.2218 24.6469 28.4226 24.2653L28.4427 24.2452V24.2051C28.5029 23.8436 28.523 23.462 28.523 23.0403C28.523 22.7391 28.5029 22.4579 28.4628 21.8956ZM25.2497 21.1526C25.2296 21.5141 25.2095 21.6547 25.1894 21.8555C25.1493 22.5985 25.1493 23.1608 25.2095 23.7231C24.2657 24.928 23.5226 24.928 23.0206 24.0243C22.5386 23.1809 22.4382 21.7551 22.7997 20.8112L25.33 20.1686C25.3099 20.4297 25.2898 20.6907 25.2497 21.1526ZM28.0611 24.1247C27.9206 24.3657 27.7398 24.4862 27.2579 24.6469C27.2378 24.6469 27.2378 24.6469 27.2177 24.6669C27.0972 24.7071 27.0169 24.7473 26.9566 24.7673C26.4144 24.6669 25.9525 24.3055 25.7316 23.8034C25.6714 23.2612 25.6714 22.6989 25.7116 21.9559C25.7316 21.7551 25.7316 21.6145 25.7718 21.253C25.812 20.7911 25.832 20.51 25.832 20.2489L28.021 20.9116C28.021 21.1727 28.041 21.4137 28.0812 21.9358C28.1214 22.478 28.1415 22.7592 28.1415 23.0805C28.1415 23.462 28.1214 23.8034 28.0611 24.1247Z" fill="#202020"/>
</g>
<g id="Group_3">
<path id="Vector_10" d="M10.4504 12.2025C12.2979 19.3918 23.8048 17.5443 23.363 10.3349C22.8409 1.69973 8.68322 3.36652 10.4504 12.2025Z" fill="white"/>
<path id="Vector_11" d="M23.5643 10.3139C23.4438 8.22538 22.52 6.59875 20.9938 5.57458C19.6282 4.65082 17.8209 4.28935 16.0336 4.51025C14.2463 4.75123 12.5996 5.5545 11.5152 6.81965C10.3103 8.22538 9.84839 10.0729 10.2701 12.2016L10.4508 12.1614L10.2701 12.2016C12.1578 19.5917 24.0061 17.8044 23.5643 10.3139ZM10.6316 12.1614C10.2299 10.1332 10.6717 8.40612 11.7963 7.1008C12.8205 5.91597 14.3668 5.13278 16.0738 4.91188C17.7807 4.69098 19.4877 5.03237 20.7729 5.91597C22.1987 6.8799 23.0622 8.38603 23.1827 10.3741C23.6044 17.3827 12.4189 19.0696 10.6316 12.1614Z" fill="#202020"/>
<path id="Vector_12" d="M13.6237 13.1254C14.6995 13.1254 15.5717 12.1813 15.5717 11.0168C15.5717 9.85225 14.6995 8.9082 13.6237 8.9082C12.5479 8.9082 11.6758 9.85225 11.6758 11.0168C11.6758 12.1813 12.5479 13.1254 13.6237 13.1254Z" fill="#202020"/>
<path id="Vector_13" d="M14.5068 12.0414C14.7619 12.0414 14.9687 11.7987 14.9687 11.4992C14.9687 11.1998 14.7619 10.957 14.5068 10.957C14.2517 10.957 14.0449 11.1998 14.0449 11.4992C14.0449 11.7987 14.2517 12.0414 14.5068 12.0414Z" fill="white"/>
</g>
<g id="Group_4">
<path id="Vector_14" d="M26.5877 10.8586C28.0135 19.1122 41.5085 16.9233 39.5606 8.60941C37.8134 1.13898 26.1057 3.2074 26.5877 10.8586Z" fill="white"/>
<path id="Vector_15" d="M39.7415 8.56881C37.9542 0.877473 25.9052 2.98606 26.3871 10.8782V10.8983C27.0498 14.7942 30.524 16.7823 34.3596 16.1396C36.1067 15.8384 37.6731 14.995 38.6973 13.7499C39.8218 12.3643 40.2235 10.577 39.7415 8.56881ZM38.396 13.5089C37.4321 14.6737 35.9661 15.4769 34.2994 15.7581C30.6645 16.3605 27.4113 14.4929 26.7687 10.8381C26.3269 3.40778 37.6932 1.41968 39.38 8.64913C39.8218 10.5569 39.4604 12.2237 38.396 13.5089Z" fill="#202020"/>
<path id="Vector_16" d="M29.9009 12.6039C30.9546 12.6039 31.8087 11.6599 31.8087 10.4953C31.8087 9.33077 30.9546 8.38672 29.9009 8.38672C28.8473 8.38672 27.9932 9.33077 27.9932 10.4953C27.9932 11.6599 28.8473 12.6039 29.9009 12.6039Z" fill="#202020"/>
<path id="Vector_17" d="M30.7856 11.52C31.0296 11.52 31.2274 11.2772 31.2274 10.9778C31.2274 10.6783 31.0296 10.4355 30.7856 10.4355C30.5416 10.4355 30.3438 10.6783 30.3438 10.9778C30.3438 11.2772 30.5416 11.52 30.7856 11.52Z" fill="white"/>
</g>
<g id="Group_5">
<path id="Vector_18" d="M22.9534 16.6936C21.3669 16.8341 20.0817 18.7017 20.9051 20.1878C21.9895 22.1558 24.4194 20.0071 25.9255 20.2079C27.6726 20.248 29.0984 22.0554 30.4841 20.5292C32.0304 18.8423 29.8214 17.1956 28.0743 16.4727L22.9534 16.6936Z" fill="#F6D2A2"/>
<path id="Vector_19" d="M30.6847 18.0401C30.1425 17.3573 29.1987 16.7348 28.1745 16.3131L28.1343 16.293H28.0942L22.9532 16.4938C21.1659 16.6544 19.8807 18.7229 20.7442 20.2892C21.0856 20.8917 21.5475 21.1929 22.17 21.2331C22.6319 21.2532 23.1139 21.1528 23.8569 20.8917C23.9171 20.8716 23.9975 20.8515 24.0979 20.8114C25.102 20.47 25.5036 20.3696 25.9052 20.4298H25.9253C26.4073 20.4298 26.8089 20.5704 27.572 20.8716C28.4155 21.213 28.6765 21.3134 29.0982 21.3536C29.6806 21.3937 30.1827 21.1929 30.6445 20.6909C31.4277 19.8274 31.3876 18.9036 30.6847 18.0401ZM30.3433 20.4097C29.9618 20.8315 29.5802 20.972 29.1183 20.9519C28.7569 20.9319 28.5159 20.8315 27.7126 20.5101C26.9093 20.1688 26.4675 20.0483 25.9454 20.0282C25.4434 19.9679 25.0216 20.0683 23.9573 20.4298C23.8569 20.47 23.7766 20.4901 23.7163 20.5101C22.2503 21.0122 21.5475 20.972 21.0655 20.0884C20.3426 18.7831 21.4471 17.0159 22.9532 16.8753L28.0339 16.6745C28.9978 17.0762 29.8613 17.6585 30.3634 18.2811C30.9658 19.004 30.9859 19.727 30.3433 20.4097Z" fill="#231F20"/>
<g id="Group_6">
<path id="Vector_20" d="M28.4754 15.8291C27.8528 13.5398 22.6316 13.8812 22.7521 16.6123C23.0131 18.6406 29.0778 18.0983 28.4754 15.8291Z" fill="#202020"/>
</g>
</g>
</g>
</svg>
