<svg width="80" height="32" viewBox="0 0 80 32" fill="none" xmlns="http://www.w3.org/2000/svg">
<path fill-rule="evenodd" clip-rule="evenodd" d="M17.179 16.9146C17.179 16.5891 16.9982 16.2817 16.7089 16.119L9.04159 11.7067C8.91501 11.6343 8.77035 11.5982 8.62568 11.5801H8.55335C8.40868 11.5801 8.26402 11.6343 8.13743 11.7067L0.470163 16.119C0.180832 16.2817 0 16.5891 0 16.9146L0.0180832 28.7772C0.0180832 28.9399 0.108499 29.1027 0.253165 29.175C0.39783 29.2654 0.578662 29.2654 0.705244 29.175L5.26221 26.571C5.55154 26.4083 5.73237 26.1009 5.73237 25.7754V20.2238C5.73237 19.8983 5.9132 19.5909 6.20253 19.4282L8.13743 18.307C8.2821 18.2166 8.44485 18.1804 8.6076 18.1804C8.77035 18.1804 8.93309 18.2166 9.05968 18.307L10.9946 19.4282C11.2839 19.5909 11.4647 19.8983 11.4647 20.2238V25.7754C11.4647 26.1009 11.6456 26.4083 11.9349 26.571L16.4919 29.175C16.6365 29.2654 16.8174 29.2654 16.962 29.175C17.1067 29.1027 17.1971 28.9399 17.1971 28.7772L17.179 16.9146V16.9146V16.9146Z" fill="#333333"/>
<path fill-rule="evenodd" clip-rule="evenodd" d="M54.0318 0.5855C53.8871 0.513167 53.7063 0.513167 53.5797 0.5855C53.435 0.675915 53.3446 0.820581 53.3446 0.98333V12.7374C53.3446 12.8459 53.2904 12.9544 53.1819 13.0267C53.0734 13.081 52.9649 13.081 52.8564 13.0267L50.9396 11.9237C50.6502 11.7609 50.3066 11.7609 50.0173 11.9237L42.35 16.354C42.0607 16.5168 41.8799 16.8242 41.8799 17.1497V25.9924C41.8799 26.3179 42.0607 26.6253 42.35 26.788L50.0173 31.2184C50.3066 31.3812 50.6502 31.3812 50.9396 31.2184L58.6068 26.788C58.8962 26.6253 59.077 26.3179 59.077 25.9924V3.94897C59.077 3.60539 58.8962 3.29798 58.6068 3.13523L54.0318 0.5855V0.5855V0.5855ZM53.3265 23.0807C53.3265 23.1711 53.2903 23.2434 53.218 23.2796L50.5959 24.7986C50.5236 24.8348 50.4332 24.8348 50.3609 24.7986L47.7388 23.2796C47.6665 23.2434 47.6303 23.153 47.6303 23.0807V20.0427C47.6303 19.9523 47.6665 19.88 47.7388 19.8438L50.3609 18.3248C50.4332 18.2886 50.5236 18.2886 50.5959 18.3248L53.218 19.8438C53.2903 19.88 53.3265 19.9704 53.3265 20.0427V23.0807V23.0807V23.0807Z" fill="#333333"/>
<path fill-rule="evenodd" clip-rule="evenodd" d="M79.5487 19.9709C79.838 19.8082 80.0008 19.5008 80.0008 19.1753V17.0234C80.0008 16.6979 79.8199 16.3905 79.5487 16.2277L71.9357 11.8154C71.6463 11.6527 71.3027 11.6527 71.0134 11.8154L63.3461 16.2458C63.0568 16.4086 62.876 16.716 62.876 17.0415V25.8841C62.876 26.2096 63.0568 26.5171 63.3461 26.6798L70.9592 31.0198C71.2485 31.1825 71.5921 31.1825 71.8633 31.0198L76.4745 28.452C76.6192 28.3796 76.7096 28.2169 76.7096 28.0541C76.7096 27.8914 76.6192 27.7286 76.4745 27.6563L68.7711 23.2259C68.6264 23.1355 68.536 22.9908 68.536 22.8281V20.0614C68.536 19.8986 68.6264 19.7359 68.7711 19.6635L71.1762 18.2892C71.3208 18.1988 71.5017 18.1988 71.6463 18.2892L74.0514 19.6635C74.1961 19.7539 74.2865 19.8986 74.2865 20.0614V22.2313C74.2865 22.3941 74.3769 22.5568 74.5215 22.6292C74.6662 22.7196 74.847 22.7196 74.9917 22.6292L79.5487 19.9709V19.9709V19.9709Z" fill="#333333"/>
<path fill-rule="evenodd" clip-rule="evenodd" d="M71.3569 19.5545C71.4112 19.5183 71.4835 19.5183 71.5377 19.5545L73.0025 20.4044C73.0567 20.4405 73.0929 20.4948 73.0929 20.5671V22.2669C73.0929 22.3393 73.0567 22.3935 73.0025 22.4297L71.5377 23.2796C71.4835 23.3158 71.4112 23.3158 71.3569 23.2796L69.8922 22.4297C69.8379 22.3935 69.8018 22.3393 69.8018 22.2669V20.5671C69.8018 20.4948 69.8379 20.4405 69.8922 20.4044L71.3569 19.5545V19.5545V19.5545Z" fill="#539E43"/>
<path fill-rule="evenodd" clip-rule="evenodd" d="M30 11.8506C29.7107 11.6878 29.3671 11.6878 29.0778 11.8506L21.4648 16.2448C21.1754 16.4075 21.0127 16.715 21.0127 17.0405V25.847C21.0127 26.1725 21.1935 26.4799 21.4648 26.6426L29.0778 31.0368C29.3671 31.1996 29.7107 31.1996 30 31.0368L37.6131 26.6426C37.9024 26.4799 38.0651 26.1725 38.0651 25.847V17.0405C38.0651 16.715 37.8843 16.4075 37.6131 16.2448L30 11.8506V11.8506V11.8506Z" fill="white"/>
<path fill-rule="evenodd" clip-rule="evenodd" d="M30 11.8506C29.7107 11.6878 29.3671 11.6878 29.0778 11.8506L21.4648 16.2448C21.1754 16.4075 21.0127 16.715 21.0127 17.0405V25.847C21.0127 26.1725 21.1935 26.4799 21.4648 26.6426L29.0778 31.0368C29.3671 31.1996 29.7107 31.1996 30 31.0368L37.6131 26.6426C37.9024 26.4799 38.0651 26.1725 38.0651 25.847V17.0405C38.0651 16.715 37.8843 16.4075 37.6131 16.2448L30 11.8506V11.8506V11.8506Z" fill="url(#paint0_linear_7806_172)"/>
<mask id="mask0_7806_172" style="mask-type:luminance" maskUnits="userSpaceOnUse" x="21" y="11" width="18" height="21">
<path fill-rule="evenodd" clip-rule="evenodd" d="M30 11.8506C29.7107 11.6878 29.3671 11.6878 29.0778 11.8506L21.4648 16.2448C21.1754 16.4075 21.0127 16.715 21.0127 17.0405V25.847C21.0127 26.1725 21.1935 26.4799 21.4648 26.6426L29.0778 31.0368C29.3671 31.1996 29.7107 31.1996 30 31.0368L37.6131 26.6426C37.9024 26.4799 38.0651 26.1725 38.0651 25.847V17.0405C38.0651 16.715 37.8843 16.4075 37.6131 16.2448L30 11.8506V11.8506V11.8506Z" fill="white"/>
</mask>
<g mask="url(#mask0_7806_172)">
<path fill-rule="evenodd" clip-rule="evenodd" d="M37.6315 16.2444L29.9823 11.8502C29.91 11.814 29.8195 11.7778 29.7472 11.7598L21.1758 26.4433C21.2481 26.5337 21.3385 26.6061 21.4289 26.6603L29.0781 31.0545C29.2951 31.1811 29.5483 31.2173 29.7834 31.1449L37.8304 16.4252C37.7761 16.3529 37.7038 16.2986 37.6315 16.2444V16.2444V16.2444Z" fill="url(#paint1_linear_7806_172)"/>
</g>
<mask id="mask1_7806_172" style="mask-type:luminance" maskUnits="userSpaceOnUse" x="21" y="11" width="18" height="21">
<path fill-rule="evenodd" clip-rule="evenodd" d="M30 11.8506C29.7107 11.6878 29.3671 11.6878 29.0778 11.8506L21.4648 16.2448C21.1754 16.4075 21.0127 16.715 21.0127 17.0405V25.847C21.0127 26.1725 21.1935 26.4799 21.4648 26.6426L29.0778 31.0368C29.3671 31.1996 29.7107 31.1996 30 31.0368L37.6131 26.6426C37.9024 26.4799 38.0651 26.1725 38.0651 25.847V17.0405C38.0651 16.715 37.8843 16.4075 37.6131 16.2448L30 11.8506V11.8506V11.8506Z" fill="white"/>
</mask>
<g mask="url(#mask1_7806_172)">
<path fill-rule="evenodd" clip-rule="evenodd" d="M37.6493 26.6416C37.8663 26.515 38.029 26.298 38.1014 26.0629L29.7108 11.7411C29.4938 11.7049 29.2587 11.723 29.0598 11.8496L21.4648 16.2257L29.6565 31.1624C29.765 31.1443 29.8916 31.1082 30.0001 31.0539L37.6493 26.6416V26.6416V26.6416Z" fill="url(#paint2_linear_7806_172)"/>
<path fill-rule="evenodd" clip-rule="evenodd" d="M37.6495 26.6417L30.0184 31.0359C29.9099 31.0901 29.8014 31.1263 29.6748 31.1444L29.8195 31.4156L38.2824 26.5151V26.4066L38.0654 26.0449C38.0292 26.2981 37.8665 26.5151 37.6495 26.6417V26.6417V26.6417Z" fill="url(#paint3_linear_7806_172)"/>
<path fill-rule="evenodd" clip-rule="evenodd" d="M37.6495 26.6417L30.0184 31.0359C29.9099 31.0901 29.8014 31.1263 29.6748 31.1444L29.8195 31.4156L38.2824 26.5151V26.4066L38.0654 26.0449C38.0292 26.2981 37.8665 26.5151 37.6495 26.6417V26.6417V26.6417Z" fill="url(#paint4_linear_7806_172)"/>
</g>
<defs>
<linearGradient id="paint0_linear_7806_172" x1="27.8946" y1="12.6563" x2="19.7909" y2="22.4633" gradientUnits="userSpaceOnUse">
<stop stop-color="#41873F"/>
<stop offset="0.3288" stop-color="#418B3D"/>
<stop offset="0.6352" stop-color="#419637"/>
<stop offset="0.9319" stop-color="#3FA92D"/>
<stop offset="1" stop-color="#3FAE2A"/>
</linearGradient>
<linearGradient id="paint1_linear_7806_172" x1="32.8824" y1="33.4707" x2="53.1534" y2="25.3725" gradientUnits="userSpaceOnUse">
<stop offset="0.1376" stop-color="#41873F"/>
<stop offset="0.4032" stop-color="#54A044"/>
<stop offset="0.7136" stop-color="#66B848"/>
<stop offset="0.9081" stop-color="#6CC04A"/>
</linearGradient>
<linearGradient id="paint2_linear_7806_172" x1="20.7347" y1="31.7341" x2="38.3508" y2="31.7341" gradientUnits="userSpaceOnUse">
<stop offset="0.0919165" stop-color="#6CC04A"/>
<stop offset="0.2864" stop-color="#66B848"/>
<stop offset="0.5968" stop-color="#54A044"/>
<stop offset="0.8624" stop-color="#41873F"/>
</linearGradient>
<linearGradient id="paint3_linear_7806_172" x1="20.7349" y1="34.2408" x2="38.351" y2="34.2408" gradientUnits="userSpaceOnUse">
<stop offset="0.0919165" stop-color="#6CC04A"/>
<stop offset="0.2864" stop-color="#66B848"/>
<stop offset="0.5968" stop-color="#54A044"/>
<stop offset="0.8624" stop-color="#41873F"/>
</linearGradient>
<linearGradient id="paint4_linear_7806_172" x1="18.9193" y1="13.3895" x2="17.2584" y2="35.7439" gradientUnits="userSpaceOnUse">
<stop stop-color="#41873F"/>
<stop offset="0.3288" stop-color="#418B3D"/>
<stop offset="0.6352" stop-color="#419637"/>
<stop offset="0.9319" stop-color="#3FA92D"/>
<stop offset="1" stop-color="#3FAE2A"/>
</linearGradient>
</defs>
</svg>
