<svg width="80" height="80" viewBox="0 0 80 80" fill="none" xmlns="http://www.w3.org/2000/svg">
<ellipse cx="40" cy="39.9133" rx="39.0625" ry="20.5383" fill="url(#paint0_radial_6804_17607)"/>
<ellipse cx="40.0005" cy="39.9128" rx="37.5366" ry="19.0125" fill="#6181B6"/>
<path fill-rule="evenodd" clip-rule="evenodd" d="M47.5977 46.0779L49.4592 36.4954C49.8865 34.3286 49.5203 32.7112 48.4217 31.7041C47.3535 30.7275 45.5225 30.2393 42.8369 30.2393H39.6021L40.5176 25.4785C40.5481 25.2954 40.5176 25.1123 40.3955 24.9597C40.2735 24.8071 40.1209 24.7461 39.9378 24.7461H35.4822C35.177 24.7461 34.9329 24.9597 34.8718 25.2344L32.8882 35.3967C32.7051 34.2371 32.2779 33.2605 31.5454 32.467C30.2332 30.9717 28.1885 30.2087 25.4114 30.2087H16.836C16.5308 30.2087 16.2866 30.4224 16.2256 30.697L12.2278 51.3269C12.1973 51.51 12.2278 51.6931 12.3499 51.8457C12.4719 51.9983 12.6245 52.0593 12.8076 52.0593H17.2937C17.5989 52.0593 17.843 51.8457 17.9041 51.571L18.8806 46.5967H22.2071C23.9466 46.5967 25.4419 46.4136 26.5711 46.0474C27.7613 45.6506 28.8294 45.0098 29.7754 44.1248C30.5384 43.4229 31.1792 42.6294 31.6675 41.7749L30.874 45.8948C30.8435 46.0779 30.874 46.261 30.9961 46.4136C31.1182 46.5662 31.2708 46.6272 31.4539 46.6272H35.9094C36.2146 46.6272 36.4588 46.4136 36.5198 46.1389L38.7171 34.8474H41.7688C43.0811 34.8474 43.4473 35.0916 43.5694 35.2136C43.6609 35.3052 43.844 35.6714 43.6304 36.8005L41.8604 45.9253C41.8299 46.1084 41.8604 46.2915 41.9824 46.4441C42.1045 46.5967 42.2571 46.6577 42.4402 46.6577H47.0178C47.2925 46.5662 47.5366 46.3525 47.5977 46.0779V46.0779ZM26.9678 38.1435C26.6932 39.5778 26.1744 40.6154 25.4114 41.1952C24.6485 41.7751 23.3973 42.0802 21.7493 42.0802H19.7657L21.2 34.695H23.7635C25.6556 34.695 26.4185 35.0917 26.7237 35.4274C27.1204 35.9157 27.212 36.8617 26.9678 38.1435V38.1435Z" fill="white"/>
<path fill-rule="evenodd" clip-rule="evenodd" d="M66.6416 32.4673C65.3294 30.9719 63.2847 30.209 60.5076 30.209H51.8711C51.5659 30.209 51.3218 30.4226 51.2608 30.6973L47.263 51.2966C47.2324 51.4797 47.263 51.6628 47.385 51.8154C47.5071 51.968 47.6597 52.0291 47.8428 52.0291H52.3289C52.6341 52.0291 52.8782 51.8154 52.9392 51.5408L53.9158 46.5664H57.2422C58.9817 46.5664 60.4771 46.3833 61.6062 46.0171C62.7964 45.6204 63.8645 44.9795 64.8106 44.0945C65.604 43.3621 66.2754 42.5381 66.7637 41.6531C67.252 40.7681 67.6182 39.7915 67.8318 38.7234C68.3506 36.0684 67.9539 33.9932 66.6416 32.4673V32.4673ZM61.9724 38.1436C61.6978 39.5779 61.179 40.6155 60.416 41.1953C59.6531 41.7752 58.4019 42.0803 56.7539 42.0803H54.7703L56.2046 34.6951H58.7681C60.6602 34.6951 61.4231 35.0918 61.7283 35.4275C62.1555 35.9158 62.2471 36.8618 61.9724 38.1436V38.1436Z" fill="white"/>
<path fill-rule="evenodd" clip-rule="evenodd" d="M23.7651 34.0837C25.4741 34.0837 26.6032 34.3888 27.1831 35.0297C27.7629 35.6706 27.885 36.7387 27.5798 38.2646C27.2746 39.8515 26.6643 41.0111 25.7793 41.6825C24.8943 42.3539 23.5515 42.6896 21.7509 42.6896H19.0349L20.7133 34.0837H23.7651V34.0837ZM12.8398 51.4177H17.3259L18.394 45.9551H22.2393C23.9482 45.9551 25.3215 45.772 26.4202 45.4058C27.5188 45.0395 28.4954 44.4597 29.4109 43.6052C30.1738 42.9033 30.7842 42.1404 31.2419 41.3164C31.6997 40.4924 32.0354 39.5769 32.2185 38.5698C32.7068 36.1284 32.3406 34.2363 31.1504 32.863C29.9602 31.4897 28.0681 30.8184 25.4741 30.8184H16.8376L12.8398 51.4177V51.4177Z" fill="#202020"/>
<path fill-rule="evenodd" clip-rule="evenodd" d="M35.5144 25.3555H39.97L38.9019 30.8181H42.8691C45.3716 30.8181 47.0806 31.2454 48.0266 32.1304C48.9727 33.0154 49.2473 34.4192 48.8811 36.3723L47.0195 45.9548H42.5029L44.273 36.8301C44.4866 35.7925 44.395 35.0906 44.0593 34.7244C43.7236 34.3582 42.9607 34.1445 41.8315 34.1445H38.261L35.9722 45.9548H31.5166L35.5144 25.3555V25.3555Z" fill="#202020"/>
<path fill-rule="evenodd" clip-rule="evenodd" d="M58.768 34.0837C60.477 34.0837 61.6062 34.3888 62.186 35.0297C62.7658 35.6706 62.8879 36.7387 62.5827 38.2646C62.2776 39.8515 61.6672 41.0111 60.7822 41.6825C59.8972 42.3539 58.5544 42.6896 56.7539 42.6896H54.0378L55.7163 34.0837H58.768V34.0837ZM47.8428 51.4177H52.3289L53.397 45.9551H57.2422C58.9512 45.9551 60.3245 45.772 61.4231 45.4058C62.5217 45.0395 63.4983 44.4597 64.4138 43.6052C65.1768 42.9033 65.7871 42.1404 66.2449 41.3164C66.7026 40.4924 67.0383 39.5769 67.2214 38.5698C67.7097 36.1284 67.3435 34.2363 66.1533 32.863C64.9631 31.4897 63.071 30.8184 60.4771 30.8184H51.8406L47.8428 51.4177V51.4177Z" fill="#202020"/>
<defs>
<radialGradient id="paint0_radial_6804_17607" cx="0" cy="0" r="1" gradientUnits="userSpaceOnUse" gradientTransform="translate(24.3908 26.5978) scale(110.796 58.2545)">
<stop stop-color="white"/>
<stop offset="0.5" stop-color="#4C6B97"/>
<stop offset="1" stop-color="#231F20"/>
</radialGradient>
</defs>
</svg>
