<svg width="69" height="69" viewBox="0 0 69 69" fill="none" xmlns="http://www.w3.org/2000/svg">
<g clip-path="url(#clip0_6804_17608)">
<path d="M34.1688 0.269531C16.6945 0.269532 17.7857 7.84745 17.7857 7.84745L17.8052 15.6981H34.4805V18.0552H11.1818C11.1818 18.0552 0 16.7871 0 34.4189C-1.24631e-06 52.0506 9.75974 51.4254 9.75974 51.4254H15.5844V43.2436C15.5844 43.2436 15.2704 33.4838 25.1883 33.4838H41.7273C41.7273 33.4838 51.0195 33.634 51.0195 24.5033V9.40589C51.0195 9.40589 52.4303 0.269531 34.1688 0.269531ZM24.974 5.54875C26.6331 5.54875 27.974 6.88968 27.974 8.54875C27.974 10.2078 26.6331 11.5488 24.974 11.5488C23.315 11.5488 21.974 10.2078 21.974 8.54875C21.974 6.88968 23.315 5.54875 24.974 5.54875Z" fill="url(#paint0_linear_6804_17608)"/>
<path d="M34.665 68.7445C52.1393 68.7445 51.0481 61.1666 51.0481 61.1666L51.0286 53.316H34.3533V50.9588H57.652C57.652 50.9588 68.8338 52.2269 68.8338 34.5952C68.8338 16.9634 59.0741 17.5887 59.0741 17.5887H53.2494V25.7705C53.2494 25.7705 53.5634 35.5302 43.6455 35.5302H27.1065C27.1065 35.5302 17.8143 35.38 17.8143 44.5108V59.6082C17.8143 59.6082 16.4035 68.7445 34.665 68.7445ZM43.8598 63.4653C42.2007 63.4653 40.8598 62.1244 40.8598 60.4653C40.8598 58.8062 42.2007 57.4653 43.8598 57.4653C45.5189 57.4653 46.8598 58.8062 46.8598 60.4653C46.8598 62.1244 45.5189 63.4653 43.8598 63.4653Z" fill="url(#paint1_linear_6804_17608)"/>
</g>
<defs>
<linearGradient id="paint0_linear_6804_17608" x1="6.61507" y1="6.42872" x2="40.7267" y2="40.2" gradientUnits="userSpaceOnUse">
<stop stop-color="#387EB8"/>
<stop offset="1" stop-color="#366994"/>
</linearGradient>
<linearGradient id="paint1_linear_6804_17608" x1="27.5527" y1="28.114" x2="64.1849" y2="62.7435" gradientUnits="userSpaceOnUse">
<stop stop-color="#FFE052"/>
<stop offset="1" stop-color="#FFC331"/>
</linearGradient>
<clipPath id="clip0_6804_17608">
<rect width="69" height="69" fill="white"/>
</clipPath>
</defs>
</svg>
