<svg width="76" height="76" viewBox="0 0 76 76" fill="none" xmlns="http://www.w3.org/2000/svg">
<path d="M15.3941 0.352714C15.4042 0.352714 15.4123 0.344586 15.4123 0.33456C15.4123 0.324534 15.4042 0.316406 15.3941 0.316406C15.3841 0.316406 15.376 0.324534 15.376 0.33456C15.376 0.344586 15.3841 0.352714 15.3941 0.352714Z" fill="#202020"/>
<path d="M22.9261 0.465386C22.9944 0.465386 23.0503 0.409454 23.0503 0.341092C23.0503 0.27273 22.9944 0.216797 22.9261 0.216797C22.8577 0.216797 22.8018 0.27273 22.8018 0.341092C22.8018 0.409454 22.8577 0.465386 22.9261 0.465386Z" fill="#202020"/>
<path d="M30.4522 0.609397C30.6013 0.609397 30.7256 0.485102 30.7256 0.335949C30.7256 0.186795 30.6013 0.0625 30.4522 0.0625C30.303 0.0625 30.1787 0.186795 30.1787 0.335949C30.1849 0.491317 30.303 0.609397 30.4522 0.609397Z" fill="#202020"/>
<path d="M37.984 0.671191C38.1694 0.671191 38.3196 0.520941 38.3196 0.335596C38.3196 0.150252 38.1694 0 37.984 0C37.7987 0 37.6484 0.150252 37.6484 0.335596C37.6484 0.520941 37.7987 0.671191 37.984 0.671191Z" fill="#202020"/>
<path d="M45.5098 0.609397C45.6608 0.609397 45.7832 0.48697 45.7832 0.335949C45.7832 0.184927 45.6608 0.0625 45.5098 0.0625C45.3588 0.0625 45.2363 0.184927 45.2363 0.335949C45.2363 0.48697 45.3588 0.609397 45.5098 0.609397Z" fill="#202020"/>
<path d="M53.0427 0.483854C53.1235 0.483854 53.1919 0.415492 53.1919 0.3347C53.1919 0.253909 53.1235 0.185547 53.0427 0.185547C52.9619 0.185547 52.8936 0.253909 52.8936 0.3347C52.8936 0.415492 52.9619 0.483854 53.0427 0.483854Z" fill="#202020"/>
<path d="M60.568 0.352714C60.578 0.352714 60.5861 0.344586 60.5861 0.33456C60.5861 0.324534 60.578 0.316406 60.568 0.316406C60.5579 0.316406 60.5498 0.324534 60.5498 0.33456C60.5498 0.344586 60.5579 0.352714 60.568 0.352714Z" fill="#202020"/>
<path d="M7.86772 7.91122C7.89258 7.91122 7.91123 7.89258 7.91123 7.86772C7.91123 7.84286 7.89258 7.82422 7.86772 7.82422C7.84286 7.82422 7.82422 7.84286 7.82422 7.86772C7.82422 7.89258 7.84286 7.91122 7.86772 7.91122Z" fill="#202020"/>
<path d="M15.3942 8.2044C15.5795 8.2044 15.7298 8.05414 15.7298 7.8688C15.7298 7.68346 15.5795 7.5332 15.3942 7.5332C15.2088 7.5332 15.0586 7.68346 15.0586 7.8688C15.0586 8.05414 15.2088 8.2044 15.3942 8.2044Z" fill="#202020"/>
<path d="M22.9256 8.51532C23.2826 8.51532 23.572 8.22595 23.572 7.86899C23.572 7.51203 23.2826 7.22266 22.9256 7.22266C22.5687 7.22266 22.2793 7.51203 22.2793 7.86899C22.2793 8.22595 22.5687 8.51532 22.9256 8.51532Z" fill="#202020"/>
<path d="M30.4525 8.74474C30.9372 8.74474 31.3287 8.35321 31.3287 7.86847C31.3287 7.38372 30.9372 6.99219 30.4525 6.99219C29.9677 6.99219 29.5762 7.38372 29.5762 7.86847C29.5762 8.35321 29.9677 8.74474 30.4525 8.74474Z" fill="#202020"/>
<path d="M37.9848 8.82501C38.513 8.82501 38.9481 8.39619 38.9481 7.86172C38.9481 7.32725 38.5192 6.89844 37.9848 6.89844C37.4565 6.89844 37.0215 7.32725 37.0215 7.86172C37.0215 8.39619 37.4503 8.82501 37.9848 8.82501Z" fill="#202020"/>
<path d="M45.511 8.74474C45.9958 8.74474 46.3873 8.35321 46.3873 7.86847C46.3873 7.38372 45.9958 6.99219 45.511 6.99219C45.0263 6.99219 44.6348 7.38372 44.6348 7.86847C44.6348 8.35321 45.0263 8.74474 45.511 8.74474Z" fill="#202020"/>
<path d="M53.0423 8.53965C53.413 8.53965 53.7135 8.23915 53.7135 7.86846C53.7135 7.49777 53.413 7.19727 53.0423 7.19727C52.6716 7.19727 52.3711 7.49777 52.3711 7.86846C52.3711 8.23915 52.6716 8.53965 53.0423 8.53965Z" fill="#202020"/>
<path d="M60.5681 8.22215C60.7637 8.22215 60.9223 8.06355 60.9223 7.86791C60.9223 7.67227 60.7637 7.51367 60.5681 7.51367C60.3725 7.51367 60.2139 7.67227 60.2139 7.86791C60.2139 8.06355 60.3725 8.22215 60.5681 8.22215Z" fill="#202020"/>
<path d="M68.1012 7.92898C68.1355 7.92898 68.1634 7.90116 68.1634 7.86684C68.1634 7.83251 68.1355 7.80469 68.1012 7.80469C68.0669 7.80469 68.0391 7.83251 68.0391 7.86684C68.0391 7.90116 68.0669 7.92898 68.1012 7.92898Z" fill="#202020"/>
<path d="M0.33456 15.4113C0.344586 15.4113 0.352714 15.4032 0.352714 15.3932C0.352714 15.3831 0.344586 15.375 0.33456 15.375C0.324534 15.375 0.316406 15.3831 0.316406 15.3932C0.316406 15.4032 0.324534 15.4113 0.33456 15.4113Z" fill="#202020"/>
<path d="M7.8688 15.7298C8.05414 15.7298 8.20439 15.5795 8.20439 15.3942C8.20439 15.2088 8.05414 15.0586 7.8688 15.0586C7.68345 15.0586 7.5332 15.2088 7.5332 15.3942C7.5332 15.5795 7.68345 15.7298 7.8688 15.7298Z" fill="#202020"/>
<path d="M15.3941 16.1886C15.8354 16.1886 16.1896 15.8344 16.1896 15.3931C16.1896 14.9519 15.8354 14.5977 15.3941 14.5977C14.9591 14.5977 14.5986 14.9519 14.5986 15.3931C14.6048 15.8344 14.9591 16.1886 15.3941 16.1886Z" fill="#202020"/>
<path d="M22.9253 16.5869C23.5841 16.5869 24.1124 16.0525 24.1124 15.3999C24.1124 14.7411 23.5779 14.2129 22.9253 14.2129C22.2666 14.2129 21.7383 14.7474 21.7383 15.3999C21.7321 16.0525 22.2666 16.5869 22.9253 16.5869Z" fill="#202020"/>
<path d="M30.4521 16.8788C31.2725 16.8788 31.9374 16.2139 31.9374 15.3935C31.9374 14.5732 31.2725 13.9082 30.4521 13.9082C29.6318 13.9082 28.9668 14.5732 28.9668 15.3935C28.973 16.2139 29.638 16.8788 30.4521 16.8788Z" fill="#202020"/>
<path d="M37.9852 16.9859C38.8615 16.9859 39.5699 16.2774 39.5699 15.4012C39.5699 14.5249 38.8615 13.8164 37.9852 13.8164C37.1089 13.8164 36.4004 14.5249 36.4004 15.4012C36.3942 16.2712 37.1089 16.9859 37.9852 16.9859Z" fill="#202020"/>
<path d="M45.5097 16.8788C46.3301 16.8788 46.9951 16.2139 46.9951 15.3935C46.9951 14.5732 46.3301 13.9082 45.5097 13.9082C44.6894 13.9082 44.0244 14.5732 44.0244 15.3935C44.0306 16.2139 44.6956 16.8788 45.5097 16.8788Z" fill="#202020"/>
<path d="M53.043 16.631C53.7204 16.631 54.2735 16.0778 54.2735 15.4004C54.2735 14.723 53.7204 14.1699 53.043 14.1699C52.3656 14.1699 51.8125 14.723 51.8125 15.4004C51.8125 16.0778 52.3594 16.631 53.043 16.631Z" fill="#202020"/>
<path d="M60.5681 16.2339C61.028 16.2339 61.4009 15.861 61.4009 15.4011C61.4009 14.9412 61.028 14.5684 60.5681 14.5684C60.1082 14.5684 59.7354 14.9412 59.7354 15.4011C59.7354 15.861 60.1082 16.2339 60.5681 16.2339Z" fill="#202020"/>
<path d="M68.1013 15.7495C68.297 15.7495 68.4555 15.5909 68.4555 15.3953C68.4555 15.1996 68.297 15.041 68.1013 15.041C67.9057 15.041 67.7471 15.1996 67.7471 15.3953C67.7471 15.5909 67.9057 15.7495 68.1013 15.7495Z" fill="#202020"/>
<path d="M75.6266 15.4113C75.6366 15.4113 75.6447 15.4032 75.6447 15.3932C75.6447 15.3831 75.6366 15.375 75.6266 15.375C75.6165 15.375 75.6084 15.3831 75.6084 15.3932C75.6084 15.4032 75.6165 15.4113 75.6266 15.4113Z" fill="#202020"/>
<path d="M0.335233 23.0513C0.403595 23.0513 0.459528 22.9954 0.459528 22.927C0.459528 22.8587 0.403595 22.8027 0.335233 22.8027C0.266871 22.8027 0.210938 22.8587 0.210938 22.927C0.210938 22.9954 0.266871 23.0513 0.335233 23.0513Z" fill="#202020"/>
<path d="M7.86801 23.572C8.22847 23.572 8.51434 23.2799 8.51434 22.9256C8.51434 22.5652 8.22225 22.2793 7.86801 22.2793C7.50756 22.2793 7.22168 22.5714 7.22168 22.9256C7.22168 23.2799 7.50756 23.572 7.86801 23.572Z" fill="#202020"/>
<path d="M15.394 24.1143C16.0528 24.1143 16.5811 23.5798 16.5811 22.9272C16.5811 22.2685 16.0466 21.7402 15.394 21.7402C14.7353 21.7402 14.207 22.2747 14.207 22.9272C14.207 23.586 14.7415 24.1143 15.394 24.1143Z" fill="#202020"/>
<path d="M22.9266 24.5974C23.8464 24.5974 24.5984 23.8517 24.5984 22.9257C24.5984 21.9997 23.8526 21.2539 22.9266 21.2539C22.0069 21.2539 21.2549 21.9997 21.2549 22.9257C21.2549 23.8517 22.0007 24.5974 22.9266 24.5974Z" fill="#202020"/>
<path d="M30.4529 24.9702C31.5839 24.9702 32.4975 24.0566 32.4975 22.9255C32.4975 21.7944 31.5839 20.8809 30.4529 20.8809C29.3218 20.8809 28.4082 21.7944 28.4082 22.9255C28.4082 24.0566 29.3218 24.9702 30.4529 24.9702Z" fill="#202020"/>
<path d="M37.9839 25.1378C39.2082 25.1378 40.1964 24.1496 40.1964 22.9253C40.1964 21.701 39.2082 20.7129 37.9839 20.7129C36.7596 20.7129 35.7715 21.701 35.7715 22.9253C35.7715 24.1496 36.7596 25.1378 37.9839 25.1378Z" fill="#202020"/>
<path d="M45.511 25.0142C46.6643 25.0142 47.5992 24.0793 47.5992 22.926C47.5992 21.7728 46.6643 20.8379 45.511 20.8379C44.3577 20.8379 43.4229 21.7728 43.4229 22.926C43.4229 24.0793 44.3577 25.0142 45.511 25.0142Z" fill="#202020"/>
<path d="M53.0421 24.6349C53.9867 24.6349 54.7511 23.8705 54.7511 22.9258C54.7511 21.9812 53.9867 21.2168 53.0421 21.2168C52.0974 21.2168 51.333 21.9812 51.333 22.9258C51.333 23.8705 52.0974 24.6349 53.0421 24.6349Z" fill="#202020"/>
<path d="M60.5684 24.1563C61.2458 24.1563 61.7989 23.6032 61.7989 22.9258C61.7989 22.2484 61.2458 21.6953 60.5684 21.6953C59.891 21.6953 59.3379 22.2484 59.3379 22.9258C59.3379 23.6032 59.891 24.1563 60.5684 24.1563Z" fill="#202020"/>
<path d="M68.101 23.616C68.482 23.616 68.7908 23.3071 68.7908 22.9262C68.7908 22.5452 68.482 22.2363 68.101 22.2363C67.72 22.2363 67.4111 22.5452 67.4111 22.9262C67.4111 23.3071 67.72 23.616 68.101 23.616Z" fill="#202020"/>
<path d="M75.6268 23.0954C75.72 23.0954 75.7946 23.0208 75.7946 22.9276C75.7946 22.8343 75.72 22.7598 75.6268 22.7598C75.5336 22.7598 75.459 22.8343 75.459 22.9276C75.459 23.0208 75.5336 23.0954 75.6268 23.0954Z" fill="#202020"/>
<path d="M0.334972 30.7266C0.485994 30.7266 0.608421 30.6042 0.608421 30.4531C0.608421 30.3021 0.485994 30.1797 0.334972 30.1797C0.183951 30.1797 0.0615234 30.3021 0.0615234 30.4531C0.0615234 30.6042 0.183951 30.7266 0.334972 30.7266Z" fill="#202020"/>
<path d="M7.86749 31.3287C8.35224 31.3287 8.74377 30.9372 8.74377 30.4524C8.74377 29.9677 8.35224 29.5762 7.86749 29.5762C7.38274 29.5762 6.99121 29.9677 6.99121 30.4524C6.99121 30.9372 7.38274 31.3287 7.86749 31.3287Z" fill="#202020"/>
<path d="M15.3945 31.9374C16.2148 31.9374 16.8798 31.2724 16.8798 30.4521C16.8798 29.6318 16.2148 28.9668 15.3945 28.9668C14.5742 28.9668 13.9092 29.6318 13.9092 30.4521C13.9092 31.2724 14.5742 31.9374 15.3945 31.9374Z" fill="#202020"/>
<path d="M22.9255 32.4975C24.0547 32.4975 24.9702 31.5821 24.9702 30.4529C24.9702 29.3236 24.0547 28.4082 22.9255 28.4082C21.7963 28.4082 20.8809 29.3236 20.8809 30.4529C20.8809 31.5821 21.7963 32.4975 22.9255 32.4975Z" fill="#202020"/>
<path d="M30.4523 33.0004C31.8569 33.0004 33.0004 31.8569 33.0004 30.4523C33.0004 29.0478 31.8631 27.9043 30.4523 27.9043C29.0478 27.9043 27.9043 29.0478 27.9043 30.4523C27.9043 31.8569 29.0478 33.0004 30.4523 33.0004Z" fill="#202020"/>
<path d="M37.9846 33.2738C39.5428 33.2738 40.8061 32.0106 40.8061 30.4523C40.8061 28.8941 39.5428 27.6309 37.9846 27.6309C36.4263 27.6309 35.1631 28.8941 35.1631 30.4523C35.1631 32.0106 36.4263 33.2738 37.9846 33.2738Z" fill="#202020"/>
<path d="M45.5105 33.0444C46.9418 33.0444 48.102 31.8841 48.102 30.4529C48.102 29.0216 46.9418 27.8613 45.5105 27.8613C44.0792 27.8613 42.9189 29.0216 42.9189 30.4529C42.9189 31.8841 44.0792 33.0444 45.5105 33.0444Z" fill="#202020"/>
<path d="M53.0423 32.5396C54.1955 32.5396 55.1304 31.6047 55.1304 30.4514C55.1304 29.2982 54.1955 28.3633 53.0423 28.3633C51.889 28.3633 50.9541 29.2982 50.9541 30.4514C50.9541 31.6047 51.889 32.5396 53.0423 32.5396Z" fill="#202020"/>
<path d="M60.5685 31.9808C61.4075 31.9808 62.0911 31.2971 62.0911 30.4582C62.0911 29.6192 61.4075 28.9355 60.5685 28.9355C59.7295 28.9355 59.0459 29.6192 59.0459 30.4582C59.0459 31.2971 59.7295 31.9808 60.5685 31.9808Z" fill="#202020"/>
<path d="M68.1004 31.3728C68.6084 31.3728 69.0202 30.961 69.0202 30.453C69.0202 29.945 68.6084 29.5332 68.1004 29.5332C67.5925 29.5332 67.1807 29.945 67.1807 30.453C67.1807 30.961 67.5925 31.3728 68.1004 31.3728Z" fill="#202020"/>
<path d="M75.6281 30.7621C75.7997 30.7621 75.9389 30.623 75.9389 30.4514C75.9389 30.2797 75.7997 30.1406 75.6281 30.1406C75.4565 30.1406 75.3174 30.2797 75.3174 30.4514C75.3174 30.623 75.4565 30.7621 75.6281 30.7621Z" fill="#202020"/>
<path d="M0.335596 38.3196C0.520941 38.3196 0.671191 38.1694 0.671191 37.984C0.671191 37.7987 0.520941 37.6484 0.335596 37.6484C0.150252 37.6484 0 37.7987 0 37.984C0 38.1694 0.150252 38.3196 0.335596 38.3196Z" fill="#202020"/>
<path d="M7.86856 38.9402C8.39681 38.9402 8.83184 38.5114 8.83184 37.977C8.83184 37.4487 8.40302 37.0137 7.86856 37.0137C7.3403 37.0137 6.90527 37.4425 6.90527 37.977C6.90527 38.5114 7.33409 38.9402 7.86856 38.9402Z" fill="#202020"/>
<path d="M15.3943 39.5699C16.2706 39.5699 16.9791 38.8614 16.9791 37.9851C16.9791 37.1089 16.2706 36.4004 15.3943 36.4004C14.518 36.4004 13.8096 37.1089 13.8096 37.9851C13.8096 38.8614 14.518 39.5699 15.3943 39.5699Z" fill="#202020"/>
<path d="M22.9263 40.1964C24.1506 40.1964 25.1388 39.2082 25.1388 37.9839C25.1388 36.7596 24.1506 35.7715 22.9263 35.7715C21.702 35.7715 20.7139 36.7596 20.7139 37.9839C20.7139 39.202 21.702 40.1964 22.9263 40.1964Z" fill="#202020"/>
<path d="M30.4524 40.8051C32.0106 40.8051 33.2738 39.5419 33.2738 37.9836C33.2738 36.4253 32.0106 35.1621 30.4524 35.1621C28.8941 35.1621 27.6309 36.4253 27.6309 37.9836C27.6309 39.5419 28.8941 40.8051 30.4524 40.8051Z" fill="#202020"/>
<path d="M37.9841 41.2416C39.7826 41.2416 41.2406 39.7836 41.2406 37.985C41.2406 36.1865 39.7826 34.7285 37.9841 34.7285C36.1855 34.7285 34.7275 36.1865 34.7275 37.985C34.7275 39.7836 36.1855 41.2416 37.9841 41.2416Z" fill="#202020"/>
<path d="M45.5101 40.8426C47.089 40.8426 48.3689 39.5626 48.3689 37.9838C48.3689 36.4049 47.089 35.125 45.5101 35.125C43.9313 35.125 42.6514 36.4049 42.6514 37.9838C42.6514 39.5626 43.9313 40.8426 45.5101 40.8426Z" fill="#202020"/>
<path d="M53.0421 40.2404C54.285 40.2404 55.298 39.2336 55.298 37.9845C55.298 36.7415 54.2912 35.7285 53.0421 35.7285C51.7991 35.7285 50.7861 36.7353 50.7861 37.9845C50.7861 39.2274 51.7929 40.2404 53.0421 40.2404Z" fill="#202020"/>
<path d="M60.5687 39.612C61.4698 39.612 62.1969 38.8849 62.1969 37.9837C62.1969 37.0826 61.4698 36.3555 60.5687 36.3555C59.6676 36.3555 58.9404 37.0826 58.9404 37.9837C58.9404 38.8849 59.6738 39.612 60.5687 39.612Z" fill="#202020"/>
<path d="M68.1012 38.9855C68.6543 38.9855 69.1018 38.5381 69.1018 37.9849C69.1018 37.4318 68.6543 36.9844 68.1012 36.9844C67.5481 36.9844 67.1006 37.4318 67.1006 37.9849C67.0944 38.5381 67.5481 38.9855 68.1012 38.9855Z" fill="#202020"/>
<path d="M75.6268 38.3571C75.8327 38.3571 75.9997 38.1901 75.9997 37.9842C75.9997 37.7783 75.8327 37.6113 75.6268 37.6113C75.4209 37.6113 75.2539 37.7783 75.2539 37.9842C75.2539 38.1901 75.4209 38.3571 75.6268 38.3571Z" fill="#202020"/>
<path d="M0.334972 45.7832C0.484126 45.7832 0.608421 45.6589 0.608421 45.5098C0.608421 45.3606 0.484126 45.2363 0.334972 45.2363C0.185818 45.2363 0.0615234 45.3606 0.0615234 45.5098C0.0677382 45.6589 0.185818 45.7832 0.334972 45.7832Z" fill="#202020"/>
<path d="M7.86749 46.3873C8.35224 46.3873 8.74377 45.9958 8.74377 45.511C8.74377 45.0263 8.35224 44.6348 7.86749 44.6348C7.38274 44.6348 6.99121 45.0263 6.99121 45.511C6.99121 45.9958 7.38274 46.3873 7.86749 46.3873Z" fill="#202020"/>
<path d="M15.3945 46.996C16.2148 46.996 16.8798 46.331 16.8798 45.5107C16.8798 44.6904 16.2148 44.0254 15.3945 44.0254C14.5742 44.0254 13.9092 44.6904 13.9092 45.5107C13.9092 46.331 14.5742 46.996 15.3945 46.996Z" fill="#202020"/>
<path d="M22.927 47.5982C24.0803 47.5982 25.0152 46.6633 25.0152 45.51C25.0152 44.3568 24.0803 43.4219 22.927 43.4219C21.7738 43.4219 20.8389 44.3568 20.8389 45.51C20.8389 46.6633 21.7738 47.5982 22.927 47.5982Z" fill="#202020"/>
<path d="M30.4529 48.103C31.8823 48.103 33.0444 46.9471 33.0444 45.5115C33.0444 44.0821 31.8885 42.9199 30.4529 42.9199C29.0235 42.9199 27.8613 44.0759 27.8613 45.5115C27.8675 46.9409 29.0235 48.103 30.4529 48.103Z" fill="#202020"/>
<path d="M37.9838 48.3679C39.5626 48.3679 40.8426 47.088 40.8426 45.5092C40.8426 43.9303 39.5626 42.6504 37.9838 42.6504C36.4049 42.6504 35.125 43.9303 35.125 45.5092C35.125 47.088 36.4049 48.3679 37.9838 48.3679Z" fill="#202020"/>
<path d="M45.5107 48.1463C46.9649 48.1463 48.1395 46.9655 48.1395 45.5175C48.1395 44.0633 46.9587 42.8887 45.5107 42.8887C44.0626 42.8887 42.8818 44.0695 42.8818 45.5175C42.8818 46.9655 44.0626 48.1463 45.5107 48.1463Z" fill="#202020"/>
<path d="M53.0428 47.6422C54.2201 47.6422 55.1744 46.6878 55.1744 45.5106C55.1744 44.3333 54.2201 43.3789 53.0428 43.3789C51.8655 43.3789 50.9111 44.3333 50.9111 45.5106C50.9111 46.6878 51.8655 47.6422 53.0428 47.6422Z" fill="#202020"/>
<path d="M60.568 47.0578C61.4194 47.0578 62.1154 46.368 62.1154 45.5104C62.1154 44.6589 61.4256 43.9629 60.568 43.9629C59.7166 43.9629 59.0205 44.6527 59.0205 45.5104C59.0267 46.368 59.7166 47.0578 60.568 47.0578Z" fill="#202020"/>
<path d="M68.1015 46.4491C68.6173 46.4491 69.0399 46.0265 69.0399 45.5107C69.0399 44.9949 68.6173 44.5723 68.1015 44.5723C67.5857 44.5723 67.1631 44.9949 67.1631 45.5107C67.1631 46.0265 67.5795 46.4491 68.1015 46.4491Z" fill="#202020"/>
<path d="M75.6276 45.845C75.8129 45.845 75.9632 45.6948 75.9632 45.5094C75.9632 45.3241 75.8129 45.1738 75.6276 45.1738C75.4422 45.1738 75.292 45.3241 75.292 45.5094C75.292 45.6948 75.4422 45.845 75.6276 45.845Z" fill="#202020"/>
<path d="M0.3347 53.185C0.415492 53.185 0.483854 53.1167 0.483854 53.0359C0.483854 52.9551 0.415492 52.8867 0.3347 52.8867C0.253909 52.8867 0.185547 52.9551 0.185547 53.0359C0.191762 53.1229 0.253909 53.185 0.3347 53.185Z" fill="#202020"/>
<path d="M7.86748 53.7073C8.23415 53.7073 8.53867 53.409 8.53867 53.0361C8.53867 52.6694 8.24036 52.3711 7.86748 52.3711C7.50081 52.3711 7.19629 52.6694 7.19629 53.0361C7.19629 53.409 7.4946 53.7073 7.86748 53.7073Z" fill="#202020"/>
<path d="M15.3936 54.2735C16.071 54.2735 16.6241 53.7204 16.6241 53.043C16.6241 52.3656 16.071 51.8125 15.3936 51.8125C14.7162 51.8125 14.1631 52.3656 14.1631 53.043C14.1631 53.7204 14.7162 54.2735 15.3936 54.2735Z" fill="#202020"/>
<path d="M22.9258 54.7521C23.8697 54.7521 24.6349 53.9869 24.6349 53.043C24.6349 52.0992 23.8697 51.334 22.9258 51.334C21.982 51.334 21.2168 52.0992 21.2168 53.043C21.2168 53.9869 21.982 54.7521 22.9258 54.7521Z" fill="#202020"/>
<path d="M30.4524 55.1314C31.6084 55.1314 32.5406 54.1992 32.5406 53.0432C32.5406 51.8873 31.6084 50.9551 30.4524 50.9551C29.2965 50.9551 28.3643 51.8873 28.3643 53.0432C28.3643 54.1992 29.3027 55.1314 30.4524 55.1314Z" fill="#202020"/>
<path d="M37.9845 55.299C39.2274 55.299 40.2404 54.2922 40.2404 53.0431C40.2404 51.7939 39.2336 50.7871 37.9845 50.7871C36.7353 50.7871 35.7285 51.7939 35.7285 53.0431C35.7285 54.2922 36.7353 55.299 37.9845 55.299Z" fill="#202020"/>
<path d="M45.5106 55.1754C46.6878 55.1754 47.6422 54.221 47.6422 53.0438C47.6422 51.8665 46.6878 50.9121 45.5106 50.9121C44.3333 50.9121 43.3789 51.8665 43.3789 53.0438C43.3789 54.221 44.3333 55.1754 45.5106 55.1754Z" fill="#202020"/>
<path d="M53.0436 54.7961C54.0115 54.7961 54.7961 54.0115 54.7961 53.0436C54.7961 52.0757 54.0115 51.291 53.0436 51.291C52.0757 51.291 51.291 52.0757 51.291 53.0436C51.291 54.0115 52.0757 54.7961 53.0436 54.7961Z" fill="#202020"/>
<path d="M60.5689 54.3176C61.2712 54.3176 61.843 53.7458 61.843 53.0436C61.843 52.3413 61.2712 51.7695 60.5689 51.7695C59.8667 51.7695 59.2949 52.3413 59.2949 53.0436C59.2949 53.7458 59.8667 54.3176 60.5689 54.3176Z" fill="#202020"/>
<path d="M68.1015 53.7753C68.5065 53.7753 68.8348 53.4469 68.8348 53.0419C68.8348 52.6369 68.5065 52.3086 68.1015 52.3086C67.6965 52.3086 67.3682 52.6369 67.3682 53.0419C67.3682 53.4469 67.6965 53.7753 68.1015 53.7753Z" fill="#202020"/>
<path d="M75.6268 53.2106C75.72 53.2106 75.7946 53.136 75.7946 53.0428C75.7946 52.9496 75.72 52.875 75.6268 52.875C75.5336 52.875 75.459 52.9496 75.459 53.0428C75.459 53.136 75.5336 53.2106 75.6268 53.2106Z" fill="#202020"/>
<path d="M0.33456 60.5871C0.344586 60.5871 0.352714 60.579 0.352714 60.5689C0.352714 60.5589 0.344586 60.5508 0.33456 60.5508C0.324534 60.5508 0.316406 60.5589 0.316406 60.5689C0.316406 60.579 0.324534 60.5871 0.33456 60.5871Z" fill="#202020"/>
<path d="M7.86791 60.9233C8.06355 60.9233 8.22215 60.7647 8.22215 60.5691C8.22215 60.3734 8.06355 60.2148 7.86791 60.2148C7.67227 60.2148 7.51367 60.3734 7.51367 60.5691C7.51367 60.7647 7.67227 60.9233 7.86791 60.9233Z" fill="#202020"/>
<path d="M15.3933 61.4077C15.8532 61.4077 16.2261 61.0349 16.2261 60.575C16.2261 60.1151 15.8532 59.7422 15.3933 59.7422C14.9334 59.7422 14.5605 60.1151 14.5605 60.575C14.5605 61.0286 14.9334 61.4077 15.3933 61.4077Z" fill="#202020"/>
<path d="M22.9258 61.7989C23.6032 61.7989 24.1563 61.2458 24.1563 60.5684C24.1563 59.891 23.6032 59.3379 22.9258 59.3379C22.2484 59.3379 21.6953 59.891 21.6953 60.5684C21.6953 61.252 22.2422 61.7989 22.9258 61.7989Z" fill="#202020"/>
<path d="M30.4523 62.098C31.2913 62.098 31.9749 61.4143 31.9749 60.5753C31.9749 59.7364 31.2913 59.0527 30.4523 59.0527C29.6133 59.0527 28.9297 59.7364 28.9297 60.5753C28.9297 61.4143 29.6133 62.098 30.4523 62.098Z" fill="#202020"/>
<path d="M37.9837 62.196C38.8849 62.196 39.612 61.4688 39.612 60.5677C39.612 59.6666 38.8849 58.9395 37.9837 58.9395C37.0826 58.9395 36.3555 59.6666 36.3555 60.5677C36.3555 61.4688 37.0826 62.196 37.9837 62.196Z" fill="#202020"/>
<path d="M45.5104 62.1164C46.3618 62.1164 47.0578 61.4266 47.0578 60.569C47.0578 59.7175 46.368 59.0215 45.5104 59.0215C44.6527 59.0215 43.9629 59.7113 43.9629 60.569C43.9691 61.4266 44.6589 62.1164 45.5104 62.1164Z" fill="#202020"/>
<path d="M53.0426 61.843C53.7448 61.843 54.3166 61.2712 54.3166 60.5689C54.3166 59.8667 53.7448 59.2949 53.0426 59.2949C52.3403 59.2949 51.7686 59.8667 51.7686 60.5689C51.7686 61.2712 52.3403 61.843 53.0426 61.843Z" fill="#202020"/>
<path d="M60.5687 61.4459C61.0534 61.4459 61.4449 61.0544 61.4449 60.5696C61.4449 60.0849 61.0534 59.6934 60.5687 59.6934C60.0839 59.6934 59.6924 60.0849 59.6924 60.5696C59.6924 61.0544 60.0839 61.4459 60.5687 61.4459Z" fill="#202020"/>
<path d="M68.1009 60.9674C68.3205 60.9674 68.4986 60.7893 68.4986 60.5696C68.4986 60.35 68.3205 60.1719 68.1009 60.1719C67.8812 60.1719 67.7031 60.35 67.7031 60.5696C67.7031 60.7893 67.8812 60.9674 68.1009 60.9674Z" fill="#202020"/>
<path d="M75.6266 60.5871C75.6366 60.5871 75.6447 60.579 75.6447 60.5689C75.6447 60.5589 75.6366 60.5508 75.6266 60.5508C75.6165 60.5508 75.6084 60.5589 75.6084 60.5689C75.6084 60.579 75.6165 60.5871 75.6266 60.5871Z" fill="#202020"/>
<path d="M7.86781 68.1634C7.9051 68.1634 7.92996 68.1323 7.92996 68.1012C7.92996 68.0639 7.89888 68.0391 7.86781 68.0391C7.83052 68.0391 7.80566 68.0701 7.80566 68.1012C7.80566 68.1323 7.83052 68.1634 7.86781 68.1634Z" fill="#202020"/>
<path d="M15.3943 68.4546C15.5899 68.4546 15.7485 68.296 15.7485 68.1003C15.7485 67.9047 15.5899 67.7461 15.3943 67.7461C15.1986 67.7461 15.04 67.9047 15.04 68.1003C15.04 68.296 15.1986 68.4546 15.3943 68.4546Z" fill="#202020"/>
<path d="M22.9262 68.7918C23.3071 68.7918 23.616 68.4829 23.616 68.1019C23.616 67.721 23.3071 67.4121 22.9262 67.4121C22.5452 67.4121 22.2363 67.721 22.2363 68.1019C22.2363 68.4829 22.5452 68.7918 22.9262 68.7918Z" fill="#202020"/>
<path d="M30.452 69.0212C30.9616 69.0212 31.3718 68.611 31.3718 68.1014C31.3718 67.5918 30.9616 67.1816 30.452 67.1816C29.9424 67.1816 29.5322 67.5918 29.5322 68.1014C29.5322 68.6048 29.9486 69.0212 30.452 69.0212Z" fill="#202020"/>
<path d="M37.984 69.1008C38.5371 69.1008 38.9845 68.6533 38.9845 68.1002C38.9845 67.5471 38.5371 67.0996 37.984 67.0996C37.4309 67.0996 36.9834 67.5471 36.9834 68.1002C36.9834 68.6533 37.4309 69.1008 37.984 69.1008Z" fill="#202020"/>
<path d="M45.5097 69.0409C46.0255 69.0409 46.4481 68.6183 46.4481 68.1025C46.4481 67.5867 46.0255 67.1641 45.5097 67.1641C44.9939 67.1641 44.5713 67.5867 44.5713 68.1025C44.5713 68.6183 44.9939 69.0409 45.5097 69.0409Z" fill="#202020"/>
<path d="M53.0429 68.8339C53.4479 68.8339 53.7762 68.5055 53.7762 68.1005C53.7762 67.6955 53.4479 67.3672 53.0429 67.3672C52.6379 67.3672 52.3096 67.6955 52.3096 68.1005C52.3096 68.5055 52.6379 68.8339 53.0429 68.8339Z" fill="#202020"/>
<path d="M60.5696 68.4986C60.7893 68.4986 60.9674 68.3205 60.9674 68.1009C60.9674 67.8812 60.7893 67.7031 60.5696 67.7031C60.35 67.7031 60.1719 67.8812 60.1719 68.1009C60.1719 68.3205 60.35 68.4986 60.5696 68.4986Z" fill="#202020"/>
<path d="M68.1012 68.1634C68.1385 68.1634 68.1634 68.1323 68.1634 68.1012C68.1634 68.0639 68.1323 68.0391 68.1012 68.0391C68.0639 68.0391 68.0391 68.0701 68.0391 68.1012C68.0391 68.1323 68.0639 68.1634 68.1012 68.1634Z" fill="#202020"/>
<path d="M15.3941 75.6437C15.4042 75.6437 15.4123 75.6356 15.4123 75.6256C15.4123 75.6156 15.4042 75.6074 15.3941 75.6074C15.3841 75.6074 15.376 75.6156 15.376 75.6256C15.376 75.6356 15.3841 75.6437 15.3941 75.6437Z" fill="#202020"/>
<path d="M22.9266 75.7946C23.0198 75.7946 23.0944 75.72 23.0944 75.6268C23.0944 75.5336 23.0198 75.459 22.9266 75.459C22.8334 75.459 22.7588 75.5336 22.7588 75.6268C22.7588 75.72 22.8334 75.7946 22.9266 75.7946Z" fill="#202020"/>
<path d="M30.4523 75.9437C30.6264 75.9437 30.7631 75.8008 30.7631 75.633C30.7631 75.4652 30.6201 75.3223 30.4523 75.3223C30.2845 75.3223 30.1416 75.4652 30.1416 75.633C30.1416 75.8008 30.2783 75.9437 30.4523 75.9437Z" fill="#202020"/>
<path d="M37.9842 75.9997C38.1901 75.9997 38.3571 75.8327 38.3571 75.6268C38.3571 75.4209 38.1901 75.2539 37.9842 75.2539C37.7783 75.2539 37.6113 75.4209 37.6113 75.6268C37.6113 75.8327 37.7783 75.9997 37.9842 75.9997Z" fill="#202020"/>
<path d="M45.5104 75.9622C45.6957 75.9622 45.846 75.812 45.846 75.6266C45.846 75.4413 45.6957 75.291 45.5104 75.291C45.3251 75.291 45.1748 75.4413 45.1748 75.6266C45.1748 75.812 45.3251 75.9622 45.5104 75.9622Z" fill="#202020"/>
<path d="M53.0428 75.7946C53.136 75.7946 53.2106 75.72 53.2106 75.6268C53.2106 75.5336 53.136 75.459 53.0428 75.459C52.9496 75.459 52.875 75.5336 52.875 75.6268C52.875 75.72 52.9496 75.7946 53.0428 75.7946Z" fill="#202020"/>
<path d="M60.568 75.6437C60.578 75.6437 60.5861 75.6356 60.5861 75.6256C60.5861 75.6156 60.578 75.6074 60.568 75.6074C60.5579 75.6074 60.5498 75.6156 60.5498 75.6256C60.5498 75.6356 60.5579 75.6437 60.568 75.6437Z" fill="#202020"/>
</svg>
